# xmcd
#
# Track frame offsets:
#	150
#	16351
#	35834
#	50920
#	67947
#	82565
#	98801
#	115514
#	133227
#	148426
#	169863
#	189987
#	214743
#
# Disc length: 3135 seconds
#
# Revision: 0
# Processed by: cddbd v1.5.1PL0 Copyright (c) Steve Scherf et al.
# Submitted via: EasyCDDAExtractor 8.2.1.1
#
DISCID=b70c3d0d
DTITLE=Various Artist - Clubber's Guide to... Deep House Disk Two
DYEAR=2005
DGENRE=House
TTITLE0=Loreatta Holloway - Lifting Me Up (Sunshine State Radio Edit)
TTITLE1=Bob Marley - Sun Is Shining (Firehouse Club Mix)
TTITLE2=Adeva - Rescue Me
TTITLE3=Teddy Pendergrass - Only You (On The House Mix)
TTITLE4=Funkstar De Luxe vs. Bob Marley - Rainbow Country (Knee Deep's Club Mi
TTITLE4=x)
TTITLE5=Billie Holiday - Don't Explain (Pleasure Device Mix)
TTITLE6=Effcee - From The D.S.
TTITLE7=Funk Machine - Wind It Up
TTITLE8=Ringo Brothers - No Doubt
TTITLE9=Funkstar De Luxe vs. Mary J. Blige - Give Me You
TTITLE10=Funkstar De Luxe - Pinguino
TTITLE11=Fuzzy Logic feat. Erire - Obsession (Shango and Danny Howells' Illogica
TTITLE11=l Infactuation Mix)
TTITLE12=Funkstar De Luxe vs. Terry and Co - All My Love (you And I)
EXTD=(c) and (r)  EDE Electronic Dance Essential\nVester Voldgade 87, 4th floo
EXTD=r\nDK-1552 Copenhagen V, Denmark\n
EXTT0=
EXTT1=
EXTT2=
EXTT3=
EXTT4=
EXTT5=
EXTT6=
EXTT7=
EXTT8=
EXTT9=
EXTT10=
EXTT11=
EXTT12=
PLAYORDER=
